<?xml version="1.0" encoding="utf-8"?><!-- Uploaded to: SVG Repo, www.svgrepo.com, Generator: SVG Repo Mixer Tools -->
<svg width="800px" height="800px" viewBox="0 0 24 24" backgroung-color="red" fill="red" xmlns="http://www.w3.org/2000/svg">
<path d="M1.90616 4.85155C1.34714 5.39645 1 6.15769 1 7V17C1 18.6569 2.34315 20 4 20H14C14.8423 20 15.6035 19.6529 16.1484 19.0938L14.7339 17.6793C14.5512 17.8765 14.29 18 14 18H4C3.44772 18 3 17.5523 3 17V7C3 6.70997 3.12347 6.44877 3.32072 6.26612L1.90616 4.85155Z" fill="white"/>
<path d="M18.4515 15.4325L21 17.1315V6.86852L17.3321 9.31382C16.3352 9.97837 15 9.26378 15 8.06574V7C15 6.44772 14.5523 6 14 6H9.01901L7.01901 4H14C15.6569 4 17 5.34315 17 7V7.13148L19.8906 5.20442C21.2197 4.31834 23 5.27112 23 6.86852V17.1315C23 17.9387 22.5454 18.5813 21.9242 18.9052L18.4515 15.4325Z" fill="white"/>
<path d="M2.00789 3.42207C1.61736 3.03155 1.61736 2.39838 2.00789 2.00786C2.39841 1.61733 3.03158 1.61733 3.4221 2.00786L22.0004 20.5862C22.391 20.9767 22.391 21.6099 22.0004 22.0004C21.6099 22.3909 20.9767 22.3909 20.5862 22.0004L2.00789 3.42207Z" fill="white"/>
</svg>